<?xml version="1.0" encoding="UTF-8" standalone="no"?>
<!DOCTYPE svg PUBLIC "-//W3C//DTD SVG 1.1//EN"
 "http://www.w3.org/Graphics/SVG/1.1/DTD/svg11.dtd">
<!-- Generated by graphviz version 2.43.0 (0)
 -->
<!-- Title: %3 Pages: 1 -->
<svg width="3332pt" height="1178pt"
 viewBox="0.00 0.00 3332.17 1178.00" xmlns="http://www.w3.org/2000/svg" xmlns:xlink="http://www.w3.org/1999/xlink">
<g id="graph0" class="graph" transform="scale(1 1) rotate(0) translate(4 1174)">
<title>%3</title>
<polygon fill="white" stroke="transparent" points="-4,4 -4,-1174 3328.17,-1174 3328.17,4 -4,4"/>
<g id="clust1" class="cluster">
<title>cluster&#45;nid&#45;02</title>
<polygon fill="none" stroke="#cccccc" points="890.59,-1046 890.59,-1116 1379.63,-1116 1379.63,-1046 890.59,-1046"/>
</g>
<g id="clust2" class="cluster">
<title>cluster&#45;nid&#45;03</title>
<polygon fill="none" stroke="#cccccc" points="890.59,-912 890.59,-982 1379.63,-982 1379.63,-912 890.59,-912"/>
</g>
<g id="clust5" class="cluster">
<title>cluster&#45;nid&#45;06</title>
<polygon fill="none" stroke="#cccccc" points="8,-997 8,-1067 188.05,-1067 188.05,-997 8,-997"/>
</g>
<g id="clust7" class="cluster">
<title>cluster&#45;nid&#45;08</title>
<polygon fill="none" stroke="#cccccc" points="2448.73,-196 2448.73,-266 2901.7,-266 2901.7,-196 2448.73,-196"/>
</g>
<g id="clust8" class="cluster">
<title>cluster&#45;nid&#45;09</title>
<polygon fill="none" stroke="#cccccc" points="2448.73,-618 2448.73,-688 2901.7,-688 2901.7,-618 2448.73,-618"/>
</g>
<g id="clust10" class="cluster">
<title>cluster&#45;nid&#45;0b</title>
<polygon fill="none" stroke="#cccccc" points="837.05,-425 837.05,-743 1404.89,-743 1404.89,-425 837.05,-425"/>
</g>
<g id="clust11" class="cluster">
<title>cluster&#45;nid&#45;0c</title>
<polygon fill="none" stroke="#cccccc" points="1638.63,-986 1638.63,-1112 2172.73,-1112 2172.73,-986 1638.63,-986"/>
</g>
<g id="clust12" class="cluster">
<title>cluster&#45;nid&#45;0d</title>
<polygon fill="none" stroke="#cccccc" points="1638.63,-852 1638.63,-978 2172.73,-978 2172.73,-852 1638.63,-852"/>
</g>
<g id="clust14" class="cluster">
<title>cluster&#45;nid&#45;0f</title>
<polygon fill="none" stroke="#cccccc" points="2376.93,-808 2376.93,-886 2902.17,-886 2902.17,-808 2376.93,-808"/>
</g>
<g id="clust18" class="cluster">
<title>cluster&#45;nid&#45;12&#45;out</title>
<polygon fill="none" stroke="#cccccc" points="1250.63,-187 1250.63,-271 1438.63,-271 1438.63,-187 1250.63,-187"/>
</g>
<g id="clust20" class="cluster">
<title>cluster&#45;nid&#45;14&#45;in</title>
<polygon fill="none" stroke="#cccccc" points="2373.73,-1078 2373.73,-1162 2593.73,-1162 2593.73,-1078 2373.73,-1078"/>
</g>
<g id="clust24" class="cluster">
<title>cluster&#45;nid&#45;17&#45;in</title>
<polygon fill="none" stroke="#cccccc" points="3102.17,-805 3102.17,-889 3316.17,-889 3316.17,-805 3102.17,-805"/>
</g>
<g id="clust27" class="cluster">
<title>cluster&#45;nid&#45;18&#45;out</title>
<polygon fill="none" stroke="#cccccc" points="403.05,-287 403.05,-371 622.05,-371 622.05,-287 403.05,-287"/>
</g>
<g id="clust29" class="cluster">
<title>cluster&#45;nid&#45;19&#45;out</title>
<polygon fill="none" stroke="#cccccc" points="403.05,-805 403.05,-889 622.05,-889 622.05,-805 403.05,-805"/>
</g>
<g id="clust31" class="cluster">
<title>cluster&#45;nid&#45;1a&#45;out</title>
<polygon fill="none" stroke="#cccccc" points="403.05,-713 403.05,-797 622.05,-797 622.05,-713 403.05,-713"/>
</g>
<g id="clust32" class="cluster">
<title>cluster&#45;nid&#45;1b&#45;in</title>
<polygon fill="none" stroke="#cccccc" points="2374.23,-986 2374.23,-1070 2883.45,-1070 2883.45,-986 2374.23,-986"/>
</g>
<g id="clust33" class="cluster">
<title>cluster&#45;nid&#45;1b&#45;out</title>
<polygon fill="none" stroke="#cccccc" points="63.02,-379 63.02,-463 622.05,-463 622.05,-379 63.02,-379"/>
</g>
<g id="clust36" class="cluster">
<title>cluster&#45;nid&#45;1d&#45;out</title>
<polygon fill="none" stroke="#cccccc" points="388.05,-195 388.05,-279 637.05,-279 637.05,-195 388.05,-195"/>
</g>
<g id="clust37" class="cluster">
<title>cluster&#45;nid&#45;1e&#45;in</title>
<polygon fill="none" stroke="#cccccc" points="403.05,-990 403.05,-1074 622.05,-1074 622.05,-990 403.05,-990"/>
</g>
<g id="clust41" class="cluster">
<title>cluster&#45;nid&#45;21&#45;in</title>
<polygon fill="none" stroke="#cccccc" points="2372.73,-894 2372.73,-978 2594.73,-978 2594.73,-894 2372.73,-894"/>
</g>
<g id="clust43" class="cluster">
<title>cluster&#45;nid&#45;22</title>
<polygon fill="none" stroke="#cccccc" points="1638.63,-462 1638.63,-844 2172.73,-844 2172.73,-462 1638.63,-462"/>
</g>
<g id="clust44" class="cluster">
<title>cluster&#45;nid&#45;23</title>
<polygon fill="none" stroke="#cccccc" points="1638.63,-8 1638.63,-454 2172.73,-454 2172.73,-8 1638.63,-8"/>
</g>
<!-- nid&#45;02 -->
<g id="node1" class="node">
<title>nid&#45;02</title>
<ellipse fill="none" stroke="blue" cx="943.84" cy="-1081" rx="45.01" ry="26.74"/>
<text text-anchor="middle" x="943.84" y="-1084.8" font-family="Times,serif" font-size="14.00">0x02</text>
<text text-anchor="middle" x="943.84" y="-1069.8" font-family="Times,serif" font-size="14.00">Stereo</text>
</g>
<!-- nid&#45;02&#45;ampout -->
<g id="node2" class="node">
<title>nid&#45;02&#45;ampout</title>
<polygon fill="none" stroke="#0000ff" points="1371.63,-1081 1331.13,-1099 1331.13,-1063 1371.63,-1081"/>
</g>
<!-- nid&#45;02&#45;&gt;nid&#45;02&#45;ampout -->
<g id="edge1" class="edge">
<title>nid&#45;02&#45;&gt;nid&#45;02&#45;ampout</title>
<path fill="none" stroke="#0000ff" d="M989.43,-1081C1076.65,-1081 1266.51,-1081 1325.66,-1081"/>
<polygon fill="#0000ff" stroke="#0000ff" points="1325.97,-1082.75 1330.97,-1081 1325.97,-1079.25 1325.97,-1082.75"/>
</g>
<!-- nid&#45;0c&#45;ampin&#45;2 -->
<g id="node24" class="node">
<title>nid&#45;0c&#45;ampin&#45;2</title>
<polygon fill="none" stroke="#0000ff" points="1844.01,-1081 1696.13,-1104 1696.13,-1058 1844.01,-1081"/>
<text text-anchor="middle" x="1745.42" y="-1077.3" font-family="Times,serif" font-size="14.00">0 (0x02)</text>
</g>
<!-- nid&#45;02&#45;ampout&#45;&gt;nid&#45;0c&#45;ampin&#45;2 -->
<g id="edge19" class="edge">
<title>nid&#45;02&#45;ampout&#45;&gt;nid&#45;0c&#45;ampin&#45;2</title>
<path fill="none" stroke="#333333" d="M1371.8,-1081C1435.14,-1081 1597.96,-1081 1685.93,-1081"/>
<polygon fill="#333333" stroke="#333333" points="1686.02,-1084.5 1696.02,-1081 1686.02,-1077.5 1686.02,-1084.5"/>
</g>
<!-- nid&#45;03 -->
<g id="node3" class="node">
<title>nid&#45;03</title>
<ellipse fill="none" stroke="blue" cx="943.84" cy="-947" rx="45.01" ry="26.74"/>
<text text-anchor="middle" x="943.84" y="-950.8" font-family="Times,serif" font-size="14.00">0x03</text>
<text text-anchor="middle" x="943.84" y="-935.8" font-family="Times,serif" font-size="14.00">Stereo</text>
</g>
<!-- nid&#45;03&#45;ampout -->
<g id="node4" class="node">
<title>nid&#45;03&#45;ampout</title>
<polygon fill="none" stroke="#0000ff" points="1371.63,-947 1331.13,-965 1331.13,-929 1371.63,-947"/>
</g>
<!-- nid&#45;03&#45;&gt;nid&#45;03&#45;ampout -->
<g id="edge2" class="edge">
<title>nid&#45;03&#45;&gt;nid&#45;03&#45;ampout</title>
<path fill="none" stroke="#0000ff" d="M989.43,-947C1076.65,-947 1266.51,-947 1325.66,-947"/>
<polygon fill="#0000ff" stroke="#0000ff" points="1325.97,-948.75 1330.97,-947 1325.97,-945.25 1325.97,-948.75"/>
</g>
<!-- nid&#45;0d&#45;ampin&#45;3 -->
<g id="node27" class="node">
<title>nid&#45;0d&#45;ampin&#45;3</title>
<polygon fill="none" stroke="#0000ff" points="1844.01,-947 1696.13,-970 1696.13,-924 1844.01,-947"/>
<text text-anchor="middle" x="1745.42" y="-943.3" font-family="Times,serif" font-size="14.00">0 (0x03)</text>
</g>
<!-- nid&#45;03&#45;ampout&#45;&gt;nid&#45;0d&#45;ampin&#45;3 -->
<g id="edge23" class="edge">
<title>nid&#45;03&#45;ampout&#45;&gt;nid&#45;0d&#45;ampin&#45;3</title>
<path fill="none" stroke="#333333" d="M1371.8,-947C1435.14,-947 1597.96,-947 1685.93,-947"/>
<polygon fill="#333333" stroke="#333333" points="1686.02,-950.5 1696.02,-947 1686.02,-943.5 1686.02,-950.5"/>
</g>
<!-- nid&#45;06 -->
<g id="node5" class="node">
<title>nid&#45;06</title>
<ellipse fill="none" stroke="blue" cx="98.02" cy="-1032" rx="82.05" ry="26.74"/>
<text text-anchor="middle" x="98.02" y="-1035.8" font-family="Times,serif" font-size="14.00">0x06</text>
<text text-anchor="middle" x="98.02" y="-1020.8" font-family="Times,serif" font-size="14.00">Stereo Digital</text>
</g>
<!-- nid&#45;1e&#45;in -->
<g id="node37" class="node">
<title>nid&#45;1e&#45;in</title>
<polygon fill="none" stroke="green" points="614.05,-1066 411.05,-1066 411.05,-998 614.05,-998 614.05,-1066"/>
<text text-anchor="middle" x="512.55" y="-1050.8" font-family="Times,serif" font-size="14.00">0x1e</text>
<text text-anchor="middle" x="512.55" y="-1035.8" font-family="Times,serif" font-size="14.00">[N/A] Speaker at Ext Rear</text>
<text text-anchor="middle" x="512.55" y="-1020.8" font-family="Times,serif" font-size="14.00">Stereo Digital</text>
<text text-anchor="middle" x="512.55" y="-1005.8" font-family="Times,serif" font-size="14.00">OUT Detect</text>
</g>
<!-- nid&#45;06&#45;&gt;nid&#45;1e&#45;in -->
<g id="edge33" class="edge">
<title>nid&#45;06&#45;&gt;nid&#45;1e&#45;in</title>
<path fill="none" stroke="#333333" d="M180.53,-1032C243.53,-1032 331.4,-1032 400.78,-1032"/>
<polygon fill="#333333" stroke="#333333" points="400.88,-1035.5 410.88,-1032 400.88,-1028.5 400.88,-1035.5"/>
</g>
<!-- nid&#45;08 -->
<g id="node6" class="node">
<title>nid&#45;08</title>
<ellipse fill="none" stroke="red" cx="2848.45" cy="-231" rx="45.01" ry="26.74"/>
<text text-anchor="middle" x="2848.45" y="-234.8" font-family="Times,serif" font-size="14.00">0x08</text>
<text text-anchor="middle" x="2848.45" y="-219.8" font-family="Times,serif" font-size="14.00">Stereo</text>
</g>
<!-- nid&#45;08&#45;ampin -->
<g id="node7" class="node">
<title>nid&#45;08&#45;ampin</title>
<polygon fill="none" stroke="#3232f1" points="2510.73,-231 2470.23,-249 2470.23,-213 2510.73,-231"/>
</g>
<!-- nid&#45;08&#45;ampin&#45;&gt;nid&#45;08 -->
<g id="edge3" class="edge">
<title>nid&#45;08&#45;ampin&#45;&gt;nid&#45;08</title>
<path fill="none" stroke="#3232f1" d="M2510.81,-231C2570.89,-231 2719.86,-231 2797.92,-231"/>
<polygon fill="#3232f1" stroke="#3232f1" points="2797.96,-232.75 2802.96,-231 2797.96,-229.25 2797.96,-232.75"/>
</g>
<!-- nid&#45;23 -->
<g id="node8" class="node">
<title>nid&#45;23</title>
<polygon fill="none" stroke="black" points="2164.48,-231 2138.48,-262.05 2086.46,-262.05 2060.46,-231 2086.46,-199.95 2138.48,-199.95 2164.48,-231"/>
<text text-anchor="middle" x="2112.47" y="-234.8" font-family="Times,serif" font-size="14.00">0x23</text>
<text text-anchor="middle" x="2112.47" y="-219.8" font-family="Times,serif" font-size="14.00">Stereo</text>
</g>
<!-- nid&#45;23&#45;&gt;nid&#45;08&#45;ampin -->
<g id="edge4" class="edge">
<title>nid&#45;23&#45;&gt;nid&#45;08&#45;ampin</title>
<path fill="none" stroke="#333333" d="M2164.81,-231C2246.19,-231 2401.52,-231 2459.84,-231"/>
<polygon fill="#333333" stroke="#333333" points="2460.16,-234.5 2470.16,-231 2460.16,-227.5 2460.16,-234.5"/>
</g>
<!-- nid&#45;09 -->
<g id="node9" class="node">
<title>nid&#45;09</title>
<ellipse fill="none" stroke="red" cx="2848.45" cy="-653" rx="45.01" ry="26.74"/>
<text text-anchor="middle" x="2848.45" y="-656.8" font-family="Times,serif" font-size="14.00">0x09</text>
<text text-anchor="middle" x="2848.45" y="-641.8" font-family="Times,serif" font-size="14.00">Stereo</text>
</g>
<!-- nid&#45;09&#45;ampin -->
<g id="node10" class="node">
<title>nid&#45;09&#45;ampin</title>
<polygon fill="none" stroke="#c8c8c8" points="2510.73,-653 2470.23,-671 2470.23,-635 2510.73,-653"/>
</g>
<!-- nid&#45;09&#45;ampin&#45;&gt;nid&#45;09 -->
<g id="edge5" class="edge">
<title>nid&#45;09&#45;ampin&#45;&gt;nid&#45;09</title>
<path fill="none" stroke="#c8c8c8" d="M2510.81,-653C2570.89,-653 2719.86,-653 2797.92,-653"/>
<polygon fill="#c8c8c8" stroke="#c8c8c8" points="2797.96,-654.75 2802.96,-653 2797.96,-651.25 2797.96,-654.75"/>
</g>
<!-- nid&#45;22 -->
<g id="node11" class="node">
<title>nid&#45;22</title>
<polygon fill="none" stroke="black" points="2164.48,-653 2138.48,-684.05 2086.46,-684.05 2060.46,-653 2086.46,-621.95 2138.48,-621.95 2164.48,-653"/>
<text text-anchor="middle" x="2112.47" y="-656.8" font-family="Times,serif" font-size="14.00">0x22</text>
<text text-anchor="middle" x="2112.47" y="-641.8" font-family="Times,serif" font-size="14.00">Stereo</text>
</g>
<!-- nid&#45;22&#45;&gt;nid&#45;09&#45;ampin -->
<g id="edge6" class="edge">
<title>nid&#45;22&#45;&gt;nid&#45;09&#45;ampin</title>
<path fill="none" stroke="#333333" d="M2164.81,-653C2246.19,-653 2401.52,-653 2459.84,-653"/>
<polygon fill="#333333" stroke="#333333" points="2460.16,-656.5 2470.16,-653 2460.16,-649.5 2460.16,-656.5"/>
</g>
<!-- nid&#45;0b -->
<g id="node12" class="node">
<title>nid&#45;0b</title>
<polygon fill="none" stroke="black" points="1396.64,-616 1370.64,-647.05 1318.62,-647.05 1292.62,-616 1318.62,-584.95 1370.64,-584.95 1396.64,-616"/>
<text text-anchor="middle" x="1344.63" y="-619.8" font-family="Times,serif" font-size="14.00">0x0b</text>
<text text-anchor="middle" x="1344.63" y="-604.8" font-family="Times,serif" font-size="14.00">Stereo</text>
</g>
<!-- nid&#45;0c&#45;ampin&#45;11 -->
<g id="node25" class="node">
<title>nid&#45;0c&#45;ampin&#45;11</title>
<polygon fill="none" stroke="#c8c8c8" points="1844.01,-1017 1696.13,-1040 1696.13,-994 1844.01,-1017"/>
<text text-anchor="middle" x="1745.42" y="-1013.3" font-family="Times,serif" font-size="14.00">1 (0x0b)</text>
</g>
<!-- nid&#45;0b&#45;&gt;nid&#45;0c&#45;ampin&#45;11 -->
<g id="edge20" class="edge">
<title>nid&#45;0b&#45;&gt;nid&#45;0c&#45;ampin&#45;11</title>
<path fill="none" stroke="#333333" d="M1362.23,-647.27C1401.07,-717.52 1504.81,-888.95 1638.63,-982 1652.71,-991.79 1669.71,-998.99 1685.93,-1004.23"/>
<polygon fill="#333333" stroke="#333333" points="1685.31,-1007.7 1695.9,-1007.24 1687.34,-1001 1685.31,-1007.7"/>
</g>
<!-- nid&#45;0d&#45;ampin&#45;11 -->
<g id="node28" class="node">
<title>nid&#45;0d&#45;ampin&#45;11</title>
<polygon fill="none" stroke="#c8c8c8" points="1844.01,-883 1696.13,-906 1696.13,-860 1844.01,-883"/>
<text text-anchor="middle" x="1745.42" y="-879.3" font-family="Times,serif" font-size="14.00">1 (0x0b)</text>
</g>
<!-- nid&#45;0b&#45;&gt;nid&#45;0d&#45;ampin&#45;11 -->
<g id="edge24" class="edge">
<title>nid&#45;0b&#45;&gt;nid&#45;0d&#45;ampin&#45;11</title>
<path fill="none" stroke="#333333" d="M1373.55,-643.77C1423.01,-691.6 1530.98,-789.94 1638.63,-848 1653.44,-855.99 1670.39,-862.58 1686.32,-867.82"/>
<polygon fill="#333333" stroke="#333333" points="1685.49,-871.22 1696.08,-870.9 1687.6,-864.55 1685.49,-871.22"/>
</g>
<!-- nid&#45;22&#45;ampin&#45;11 -->
<g id="node44" class="node">
<title>nid&#45;22&#45;ampin&#45;11</title>
<polygon fill="none" stroke="#c8c8c8" points="1844.01,-685 1696.13,-708 1696.13,-662 1844.01,-685"/>
<text text-anchor="middle" x="1745.42" y="-681.3" font-family="Times,serif" font-size="14.00">5 (0x0b)</text>
</g>
<!-- nid&#45;0b&#45;&gt;nid&#45;22&#45;ampin&#45;11 -->
<g id="edge47" class="edge">
<title>nid&#45;0b&#45;&gt;nid&#45;22&#45;ampin&#45;11</title>
<path fill="none" stroke="#333333" d="M1390.22,-623.71C1462.63,-636.24 1605.76,-661.01 1686.14,-674.92"/>
<polygon fill="#333333" stroke="#333333" points="1685.65,-678.38 1696.1,-676.64 1686.84,-671.49 1685.65,-678.38"/>
</g>
<!-- nid&#45;23&#45;ampin&#45;11 -->
<g id="node50" class="node">
<title>nid&#45;23&#45;ampin&#45;11</title>
<polygon fill="none" stroke="#c8c8c8" points="1844.01,-295 1696.13,-318 1696.13,-272 1844.01,-295"/>
<text text-anchor="middle" x="1745.42" y="-291.3" font-family="Times,serif" font-size="14.00">5 (0x0b)</text>
</g>
<!-- nid&#45;0b&#45;&gt;nid&#45;23&#45;ampin&#45;11 -->
<g id="edge60" class="edge">
<title>nid&#45;0b&#45;&gt;nid&#45;23&#45;ampin&#45;11</title>
<path fill="none" stroke="#333333" d="M1368.59,-584.9C1413.75,-525.93 1520.08,-397.44 1638.63,-327 1653.11,-318.4 1670.1,-311.93 1686.17,-307.15"/>
<polygon fill="#333333" stroke="#333333" points="1687.35,-310.45 1696.03,-304.38 1685.46,-303.71 1687.35,-310.45"/>
</g>
<!-- nid&#45;0b&#45;ampin&#45;24 -->
<g id="node13" class="node">
<title>nid&#45;0b&#45;ampin&#45;24</title>
<polygon fill="none" stroke="#c8c8c8" points="1042.42,-520 894.55,-543 894.55,-497 1042.42,-520"/>
<text text-anchor="middle" x="943.84" y="-516.3" font-family="Times,serif" font-size="14.00">0 (0x18)</text>
</g>
<!-- nid&#45;0b&#45;ampin&#45;24&#45;&gt;nid&#45;0b -->
<g id="edge7" class="edge">
<title>nid&#45;0b&#45;ampin&#45;24&#45;&gt;nid&#45;0b</title>
<path fill="none" stroke="#c8c8c8" d="M983.44,-529.29C1056.79,-546.95 1216.11,-585.3 1295.98,-604.53"/>
<polygon fill="#c8c8c8" stroke="#c8c8c8" points="1295.85,-606.3 1301.12,-605.77 1296.67,-602.89 1295.85,-606.3"/>
</g>
<!-- nid&#45;0b&#45;ampin&#45;25 -->
<g id="node14" class="node">
<title>nid&#45;0b&#45;ampin&#45;25</title>
<polygon fill="none" stroke="#c8c8c8" points="1042.42,-712 894.55,-735 894.55,-689 1042.42,-712"/>
<text text-anchor="middle" x="943.84" y="-708.3" font-family="Times,serif" font-size="14.00">1 (0x19)</text>
</g>
<!-- nid&#45;0b&#45;ampin&#45;25&#45;&gt;nid&#45;0b -->
<g id="edge8" class="edge">
<title>nid&#45;0b&#45;ampin&#45;25&#45;&gt;nid&#45;0b</title>
<path fill="none" stroke="#c8c8c8" d="M983.44,-702.71C1056.79,-685.05 1216.11,-646.7 1295.98,-627.47"/>
<polygon fill="#c8c8c8" stroke="#c8c8c8" points="1296.67,-629.11 1301.12,-626.23 1295.85,-625.7 1296.67,-629.11"/>
</g>
<!-- nid&#45;0b&#45;ampin&#45;26 -->
<g id="node15" class="node">
<title>nid&#45;0b&#45;ampin&#45;26</title>
<polygon fill="none" stroke="#c8c8c8" points="1041.32,-648 895.1,-671 895.1,-625 1041.32,-648"/>
<text text-anchor="middle" x="943.84" y="-644.3" font-family="Times,serif" font-size="14.00">2 (0x1a)</text>
</g>
<!-- nid&#45;0b&#45;ampin&#45;26&#45;&gt;nid&#45;0b -->
<g id="edge9" class="edge">
<title>nid&#45;0b&#45;ampin&#45;26&#45;&gt;nid&#45;0b</title>
<path fill="none" stroke="#c8c8c8" d="M1008.91,-642.86C1087.07,-636.59 1217.75,-626.1 1290.55,-620.26"/>
<polygon fill="#c8c8c8" stroke="#c8c8c8" points="1290.85,-621.99 1295.69,-619.85 1290.57,-618.5 1290.85,-621.99"/>
</g>
<!-- nid&#45;0b&#45;ampin&#45;27 -->
<g id="node16" class="node">
<title>nid&#45;0b&#45;ampin&#45;27</title>
<polygon fill="none" stroke="#c8c8c8" points="1042.42,-584 894.55,-607 894.55,-561 1042.42,-584"/>
<text text-anchor="middle" x="943.84" y="-580.3" font-family="Times,serif" font-size="14.00">3 (0x1b)</text>
</g>
<!-- nid&#45;0b&#45;ampin&#45;27&#45;&gt;nid&#45;0b -->
<g id="edge10" class="edge">
<title>nid&#45;0b&#45;ampin&#45;27&#45;&gt;nid&#45;0b</title>
<path fill="none" stroke="#c8c8c8" d="M1009.36,-589.18C1087.61,-595.46 1218.04,-605.92 1290.68,-611.75"/>
<polygon fill="#c8c8c8" stroke="#c8c8c8" points="1290.68,-613.51 1295.81,-612.16 1290.96,-610.02 1290.68,-613.51"/>
</g>
<!-- nid&#45;0b&#45;ampin&#45;29 -->
<g id="node17" class="node">
<title>nid&#45;0b&#45;ampin&#45;29</title>
<polygon fill="none" stroke="#c8c8c8" points="1042.42,-456 894.55,-479 894.55,-433 1042.42,-456"/>
<text text-anchor="middle" x="943.84" y="-452.3" font-family="Times,serif" font-size="14.00">4 (0x1d)</text>
</g>
<!-- nid&#45;0b&#45;ampin&#45;29&#45;&gt;nid&#45;0b -->
<g id="edge11" class="edge">
<title>nid&#45;0b&#45;ampin&#45;29&#45;&gt;nid&#45;0b</title>
<path fill="none" stroke="#c8c8c8" d="M978.13,-466.11C997.16,-472.09 1021.39,-480.03 1042.63,-488 1136.48,-523.24 1244.03,-570.74 1301.76,-596.84"/>
<polygon fill="#c8c8c8" stroke="#c8c8c8" points="1301.23,-598.52 1306.51,-598.99 1302.67,-595.34 1301.23,-598.52"/>
</g>
<!-- nid&#45;18&#45;out -->
<g id="node18" class="node">
<title>nid&#45;18&#45;out</title>
<polygon fill="none" stroke="green" points="614.05,-363 411.05,-363 411.05,-295 614.05,-295 614.05,-363"/>
<text text-anchor="middle" x="512.55" y="-347.8" font-family="Times,serif" font-size="14.00">0x18</text>
<text text-anchor="middle" x="512.55" y="-332.8" font-family="Times,serif" font-size="14.00">[N/A] Speaker at Ext Rear</text>
<text text-anchor="middle" x="512.55" y="-317.8" font-family="Times,serif" font-size="14.00">Stereo</text>
<text text-anchor="middle" x="512.55" y="-302.8" font-family="Times,serif" font-size="14.00">IN Detect</text>
</g>
<!-- nid&#45;18&#45;out&#45;&gt;nid&#45;0b&#45;ampin&#45;24 -->
<g id="edge12" class="edge">
<title>nid&#45;18&#45;out&#45;&gt;nid&#45;0b&#45;ampin&#45;24</title>
<path fill="none" stroke="#333333" d="M609.57,-363.06C618.94,-366.89 628.23,-370.9 637.05,-375 729.62,-418.06 743.17,-447.87 837.05,-488 852.17,-494.47 869.03,-500.19 884.76,-504.94"/>
<polygon fill="#333333" stroke="#333333" points="883.8,-508.31 894.38,-507.77 885.78,-501.59 883.8,-508.31"/>
</g>
<!-- nid&#45;22&#45;ampin&#45;24 -->
<g id="node39" class="node">
<title>nid&#45;22&#45;ampin&#45;24</title>
<polygon fill="none" stroke="#c8c8c8" points="1844.01,-557 1696.13,-580 1696.13,-534 1844.01,-557"/>
<text text-anchor="middle" x="1745.42" y="-553.3" font-family="Times,serif" font-size="14.00">0 (0x18)</text>
</g>
<!-- nid&#45;18&#45;out&#45;&gt;nid&#45;22&#45;ampin&#45;24 -->
<g id="edge42" class="edge">
<title>nid&#45;18&#45;out&#45;&gt;nid&#45;22&#45;ampin&#45;24</title>
<path fill="none" stroke="#333333" d="M614.12,-318.64C787.71,-304.41 1152.48,-290.68 1438.63,-389 1540.29,-423.93 1541.63,-478.68 1638.63,-525 1653.54,-532.12 1670.4,-538.07 1686.2,-542.83"/>
<polygon fill="#333333" stroke="#333333" points="1685.29,-546.22 1695.87,-545.65 1687.24,-539.49 1685.29,-546.22"/>
</g>
<!-- nid&#45;23&#45;ampin&#45;24 -->
<g id="node45" class="node">
<title>nid&#45;23&#45;ampin&#45;24</title>
<polygon fill="none" stroke="#c8c8c8" points="1844.01,-103 1696.13,-126 1696.13,-80 1844.01,-103"/>
<text text-anchor="middle" x="1745.42" y="-99.3" font-family="Times,serif" font-size="14.00">0 (0x18)</text>
</g>
<!-- nid&#45;18&#45;out&#45;&gt;nid&#45;23&#45;ampin&#45;24 -->
<g id="edge55" class="edge">
<title>nid&#45;18&#45;out&#45;&gt;nid&#45;23&#45;ampin&#45;24</title>
<path fill="none" stroke="#333333" d="M614.31,-300.41C755.45,-261.41 1020.54,-191.94 1250.63,-153 1406.83,-126.56 1593.37,-112.31 1686.1,-106.38"/>
<polygon fill="#333333" stroke="#333333" points="1686.36,-109.87 1696.12,-105.74 1685.92,-102.88 1686.36,-109.87"/>
</g>
<!-- nid&#45;19&#45;out -->
<g id="node19" class="node">
<title>nid&#45;19&#45;out</title>
<polygon fill="none" stroke="green" points="614.05,-881 411.05,-881 411.05,-813 614.05,-813 614.05,-881"/>
<text text-anchor="middle" x="512.55" y="-865.8" font-family="Times,serif" font-size="14.00">0x19</text>
<text text-anchor="middle" x="512.55" y="-850.8" font-family="Times,serif" font-size="14.00">[N/A] Speaker at Ext Rear</text>
<text text-anchor="middle" x="512.55" y="-835.8" font-family="Times,serif" font-size="14.00">Stereo</text>
<text text-anchor="middle" x="512.55" y="-820.8" font-family="Times,serif" font-size="14.00">IN Detect</text>
</g>
<!-- nid&#45;19&#45;out&#45;&gt;nid&#45;0b&#45;ampin&#45;25 -->
<g id="edge13" class="edge">
<title>nid&#45;19&#45;out&#45;&gt;nid&#45;0b&#45;ampin&#45;25</title>
<path fill="none" stroke="#333333" d="M614.2,-815.35C698.29,-788.9 815.26,-752.12 884.6,-730.31"/>
<polygon fill="#333333" stroke="#333333" points="885.99,-733.55 894.47,-727.21 883.89,-726.87 885.99,-733.55"/>
</g>
<!-- nid&#45;22&#45;ampin&#45;25 -->
<g id="node40" class="node">
<title>nid&#45;22&#45;ampin&#45;25</title>
<polygon fill="none" stroke="#c8c8c8" points="1844.01,-813 1696.13,-836 1696.13,-790 1844.01,-813"/>
<text text-anchor="middle" x="1745.42" y="-809.3" font-family="Times,serif" font-size="14.00">1 (0x19)</text>
</g>
<!-- nid&#45;19&#45;out&#45;&gt;nid&#45;22&#45;ampin&#45;25 -->
<g id="edge43" class="edge">
<title>nid&#45;19&#45;out&#45;&gt;nid&#45;22&#45;ampin&#45;25</title>
<path fill="none" stroke="#333333" d="M614.3,-852.36C784.41,-860.35 1139.33,-872.49 1438.63,-853 1525.17,-847.36 1624.63,-832.85 1686,-822.94"/>
<polygon fill="#333333" stroke="#333333" points="1686.58,-826.39 1695.89,-821.33 1685.46,-819.48 1686.58,-826.39"/>
</g>
<!-- nid&#45;23&#45;ampin&#45;25 -->
<g id="node46" class="node">
<title>nid&#45;23&#45;ampin&#45;25</title>
<polygon fill="none" stroke="#c8c8c8" points="1844.01,-423 1696.13,-446 1696.13,-400 1844.01,-423"/>
<text text-anchor="middle" x="1745.42" y="-419.3" font-family="Times,serif" font-size="14.00">1 (0x19)</text>
</g>
<!-- nid&#45;19&#45;out&#45;&gt;nid&#45;23&#45;ampin&#45;25 -->
<g id="edge56" class="edge">
<title>nid&#45;19&#45;out&#45;&gt;nid&#45;23&#45;ampin&#45;25</title>
<path fill="none" stroke="#333333" d="M614.24,-849.89C824.54,-854.17 1302.17,-854.22 1438.63,-772 1580.35,-686.61 1508.08,-559.65 1638.63,-458 1652.48,-447.22 1669.79,-439.69 1686.38,-434.45"/>
<polygon fill="#333333" stroke="#333333" points="1687.41,-437.79 1696.03,-431.63 1685.45,-431.07 1687.41,-437.79"/>
</g>
<!-- nid&#45;1a&#45;out -->
<g id="node20" class="node">
<title>nid&#45;1a&#45;out</title>
<polygon fill="none" stroke="green" points="614.05,-789 411.05,-789 411.05,-721 614.05,-721 614.05,-789"/>
<text text-anchor="middle" x="512.55" y="-773.8" font-family="Times,serif" font-size="14.00">0x1a</text>
<text text-anchor="middle" x="512.55" y="-758.8" font-family="Times,serif" font-size="14.00">[N/A] Speaker at Ext Rear</text>
<text text-anchor="middle" x="512.55" y="-743.8" font-family="Times,serif" font-size="14.00">Stereo</text>
<text text-anchor="middle" x="512.55" y="-728.8" font-family="Times,serif" font-size="14.00">IN Detect</text>
</g>
<!-- nid&#45;1a&#45;out&#45;&gt;nid&#45;0b&#45;ampin&#45;26 -->
<g id="edge14" class="edge">
<title>nid&#45;1a&#45;out&#45;&gt;nid&#45;0b&#45;ampin&#45;26</title>
<path fill="none" stroke="#333333" d="M614.2,-729.91C698.52,-708.9 815.92,-679.64 885.18,-662.37"/>
<polygon fill="#333333" stroke="#333333" points="886.19,-665.73 895.04,-659.91 884.49,-658.94 886.19,-665.73"/>
</g>
<!-- nid&#45;22&#45;ampin&#45;26 -->
<g id="node41" class="node">
<title>nid&#45;22&#45;ampin&#45;26</title>
<polygon fill="none" stroke="#c8c8c8" points="1842.91,-749 1696.68,-772 1696.68,-726 1842.91,-749"/>
<text text-anchor="middle" x="1745.42" y="-745.3" font-family="Times,serif" font-size="14.00">2 (0x1a)</text>
</g>
<!-- nid&#45;1a&#45;out&#45;&gt;nid&#45;22&#45;ampin&#45;26 -->
<g id="edge44" class="edge">
<title>nid&#45;1a&#45;out&#45;&gt;nid&#45;22&#45;ampin&#45;26</title>
<path fill="none" stroke="#333333" d="M614.37,-763.62C678.15,-768.64 762.36,-774.46 837.05,-777 1104.26,-786.08 1171.54,-789.2 1438.63,-777 1525.1,-773.05 1624.88,-762.85 1686.32,-755.91"/>
<polygon fill="#333333" stroke="#333333" points="1687.04,-759.35 1696.58,-754.74 1686.25,-752.4 1687.04,-759.35"/>
</g>
<!-- nid&#45;23&#45;ampin&#45;26 -->
<g id="node47" class="node">
<title>nid&#45;23&#45;ampin&#45;26</title>
<polygon fill="none" stroke="#c8c8c8" points="1842.91,-359 1696.68,-382 1696.68,-336 1842.91,-359"/>
<text text-anchor="middle" x="1745.42" y="-355.3" font-family="Times,serif" font-size="14.00">2 (0x1a)</text>
</g>
<!-- nid&#45;1a&#45;out&#45;&gt;nid&#45;23&#45;ampin&#45;26 -->
<g id="edge57" class="edge">
<title>nid&#45;1a&#45;out&#45;&gt;nid&#45;23&#45;ampin&#45;26</title>
<path fill="none" stroke="#333333" d="M614.1,-759.76C839.15,-769.6 1369.2,-788.04 1438.63,-747 1594.87,-654.66 1497.1,-504.6 1638.63,-391 1652.39,-379.96 1669.92,-372.72 1686.72,-367.97"/>
<polygon fill="#333333" stroke="#333333" points="1687.69,-371.34 1696.5,-365.46 1685.95,-364.56 1687.69,-371.34"/>
</g>
<!-- nid&#45;1b&#45;out -->
<g id="node21" class="node">
<title>nid&#45;1b&#45;out</title>
<polygon fill="none" stroke="green" points="614.05,-455 411.05,-455 411.05,-387 614.05,-387 614.05,-455"/>
<text text-anchor="middle" x="512.55" y="-439.8" font-family="Times,serif" font-size="14.00">0x1b</text>
<text text-anchor="middle" x="512.55" y="-424.8" font-family="Times,serif" font-size="14.00">[N/A] Speaker at Ext Rear</text>
<text text-anchor="middle" x="512.55" y="-409.8" font-family="Times,serif" font-size="14.00">Stereo</text>
<text text-anchor="middle" x="512.55" y="-394.8" font-family="Times,serif" font-size="14.00">IN OUT HP EAPD Detect</text>
</g>
<!-- nid&#45;1b&#45;out&#45;&gt;nid&#45;0b&#45;ampin&#45;27 -->
<g id="edge15" class="edge">
<title>nid&#45;1b&#45;out&#45;&gt;nid&#45;0b&#45;ampin&#45;27</title>
<path fill="none" stroke="#333333" d="M591.89,-455.06C656.93,-482.77 752.2,-522.06 837.05,-552 852.26,-557.37 868.9,-562.66 884.37,-567.35"/>
<polygon fill="#333333" stroke="#333333" points="883.77,-570.82 894.35,-570.34 885.78,-564.12 883.77,-570.82"/>
</g>
<!-- nid&#45;22&#45;ampin&#45;27 -->
<g id="node42" class="node">
<title>nid&#45;22&#45;ampin&#45;27</title>
<polygon fill="none" stroke="#c8c8c8" points="1844.01,-621 1696.13,-644 1696.13,-598 1844.01,-621"/>
<text text-anchor="middle" x="1745.42" y="-617.3" font-family="Times,serif" font-size="14.00">3 (0x1b)</text>
</g>
<!-- nid&#45;1b&#45;out&#45;&gt;nid&#45;22&#45;ampin&#45;27 -->
<g id="edge45" class="edge">
<title>nid&#45;1b&#45;out&#45;&gt;nid&#45;22&#45;ampin&#45;27</title>
<path fill="none" stroke="#333333" d="M614.23,-412.4C821.71,-396.08 1289.9,-366.82 1438.63,-421 1547.71,-460.73 1536.54,-533.73 1638.63,-589 1653.3,-596.94 1670.21,-603.18 1686.15,-607.96"/>
<polygon fill="#333333" stroke="#333333" points="1685.34,-611.37 1695.92,-610.75 1687.26,-604.64 1685.34,-611.37"/>
</g>
<!-- nid&#45;23&#45;ampin&#45;27 -->
<g id="node48" class="node">
<title>nid&#45;23&#45;ampin&#45;27</title>
<polygon fill="none" stroke="#c8c8c8" points="1844.01,-167 1696.13,-190 1696.13,-144 1844.01,-167"/>
<text text-anchor="middle" x="1745.42" y="-163.3" font-family="Times,serif" font-size="14.00">3 (0x1b)</text>
</g>
<!-- nid&#45;1b&#45;out&#45;&gt;nid&#45;23&#45;ampin&#45;27 -->
<g id="edge58" class="edge">
<title>nid&#45;1b&#45;out&#45;&gt;nid&#45;23&#45;ampin&#45;27</title>
<path fill="none" stroke="#333333" d="M607.84,-386.9C776.54,-326.51 1124.2,-205.01 1250.63,-183 1405.99,-155.95 1592.89,-159.5 1685.9,-163.65"/>
<polygon fill="#333333" stroke="#333333" points="1685.8,-167.15 1695.95,-164.12 1686.13,-160.16 1685.8,-167.15"/>
</g>
<!-- nid&#45;1d&#45;out -->
<g id="node22" class="node">
<title>nid&#45;1d&#45;out</title>
<polygon fill="none" stroke="green" points="629.05,-271 396.05,-271 396.05,-203 629.05,-203 629.05,-271"/>
<text text-anchor="middle" x="512.55" y="-255.8" font-family="Times,serif" font-size="14.00">0x1d</text>
<text text-anchor="middle" x="512.55" y="-240.8" font-family="Times,serif" font-size="14.00">[N/A] Modem Hand at Ext N/A</text>
<text text-anchor="middle" x="512.55" y="-225.8" font-family="Times,serif" font-size="14.00">Mono</text>
<text text-anchor="middle" x="512.55" y="-210.8" font-family="Times,serif" font-size="14.00">IN</text>
</g>
<!-- nid&#45;1d&#45;out&#45;&gt;nid&#45;0b&#45;ampin&#45;29 -->
<g id="edge16" class="edge">
<title>nid&#45;1d&#45;out&#45;&gt;nid&#45;0b&#45;ampin&#45;29</title>
<path fill="none" stroke="#333333" d="M609.57,-271.05C618.94,-274.89 628.23,-278.9 637.05,-283 734.94,-328.57 843.67,-393.85 901.44,-429.78"/>
<polygon fill="#333333" stroke="#333333" points="899.93,-432.96 910.27,-435.29 903.64,-427.02 899.93,-432.96"/>
</g>
<!-- nid&#45;22&#45;ampin&#45;29 -->
<g id="node43" class="node">
<title>nid&#45;22&#45;ampin&#45;29</title>
<polygon fill="none" stroke="#c8c8c8" points="1844.01,-493 1696.13,-516 1696.13,-470 1844.01,-493"/>
<text text-anchor="middle" x="1745.42" y="-489.3" font-family="Times,serif" font-size="14.00">4 (0x1d)</text>
</g>
<!-- nid&#45;1d&#45;out&#45;&gt;nid&#45;22&#45;ampin&#45;29 -->
<g id="edge46" class="edge">
<title>nid&#45;1d&#45;out&#45;&gt;nid&#45;22&#45;ampin&#45;29</title>
<path fill="none" stroke="#333333" d="M629.38,-234.23C807.94,-233.37 1159.03,-245.32 1438.63,-339 1536.71,-371.86 1544.53,-415.06 1638.63,-458 1653.72,-464.88 1670.56,-471.08 1686.29,-476.28"/>
<polygon fill="#333333" stroke="#333333" points="1685.33,-479.65 1695.92,-479.39 1687.48,-472.99 1685.33,-479.65"/>
</g>
<!-- nid&#45;23&#45;ampin&#45;29 -->
<g id="node49" class="node">
<title>nid&#45;23&#45;ampin&#45;29</title>
<polygon fill="none" stroke="#c8c8c8" points="1844.01,-39 1696.13,-62 1696.13,-16 1844.01,-39"/>
<text text-anchor="middle" x="1745.42" y="-35.3" font-family="Times,serif" font-size="14.00">4 (0x1d)</text>
</g>
<!-- nid&#45;1d&#45;out&#45;&gt;nid&#45;23&#45;ampin&#45;29 -->
<g id="edge59" class="edge">
<title>nid&#45;1d&#45;out&#45;&gt;nid&#45;23&#45;ampin&#45;29</title>
<path fill="none" stroke="#333333" d="M577.43,-202.99C641.22,-170.81 743.03,-124.24 837.05,-102 1150.31,-27.88 1540.05,-31.86 1685.81,-36.55"/>
<polygon fill="#333333" stroke="#333333" points="1685.77,-40.05 1695.88,-36.89 1686.01,-33.06 1685.77,-40.05"/>
</g>
<!-- nid&#45;0c -->
<g id="node23" class="node">
<title>nid&#45;0c</title>
<polygon fill="none" stroke="black" points="2164.48,-1028 2138.48,-1059.05 2086.46,-1059.05 2060.46,-1028 2086.46,-996.95 2138.48,-996.95 2164.48,-1028"/>
<text text-anchor="middle" x="2112.47" y="-1031.8" font-family="Times,serif" font-size="14.00">0x0c</text>
<text text-anchor="middle" x="2112.47" y="-1016.8" font-family="Times,serif" font-size="14.00">Stereo</text>
</g>
<!-- nid&#45;14&#45;in -->
<g id="node32" class="node">
<title>nid&#45;14&#45;in</title>
<polygon fill="none" stroke="green" points="2585.73,-1154 2381.73,-1154 2381.73,-1086 2585.73,-1086 2585.73,-1154"/>
<text text-anchor="middle" x="2483.73" y="-1138.8" font-family="Times,serif" font-size="14.00">0x14</text>
<text text-anchor="middle" x="2483.73" y="-1123.8" font-family="Times,serif" font-size="14.00">[Fixed] Speaker at Int N/A</text>
<text text-anchor="middle" x="2483.73" y="-1108.8" font-family="Times,serif" font-size="14.00">Stereo</text>
<text text-anchor="middle" x="2483.73" y="-1093.8" font-family="Times,serif" font-size="14.00">OUT EAPD Detect</text>
</g>
<!-- nid&#45;0c&#45;&gt;nid&#45;14&#45;in -->
<g id="edge27" class="edge">
<title>nid&#45;0c&#45;&gt;nid&#45;14&#45;in</title>
<path fill="none" stroke="#333333" d="M2155.83,-1038.55C2208.03,-1051.56 2298.72,-1074.15 2371.35,-1092.25"/>
<polygon fill="#333333" stroke="#333333" points="2370.93,-1095.75 2381.48,-1094.77 2372.62,-1088.96 2370.93,-1095.75"/>
</g>
<!-- nid&#45;1b&#45;in -->
<g id="node34" class="node">
<title>nid&#45;1b&#45;in</title>
<polygon fill="none" stroke="green" points="2585.23,-1062 2382.23,-1062 2382.23,-994 2585.23,-994 2585.23,-1062"/>
<text text-anchor="middle" x="2483.73" y="-1046.8" font-family="Times,serif" font-size="14.00">0x1b</text>
<text text-anchor="middle" x="2483.73" y="-1031.8" font-family="Times,serif" font-size="14.00">[N/A] Speaker at Ext Rear</text>
<text text-anchor="middle" x="2483.73" y="-1016.8" font-family="Times,serif" font-size="14.00">Stereo</text>
<text text-anchor="middle" x="2483.73" y="-1001.8" font-family="Times,serif" font-size="14.00">IN OUT HP EAPD Detect</text>
</g>
<!-- nid&#45;0c&#45;&gt;nid&#45;1b&#45;in -->
<g id="edge31" class="edge">
<title>nid&#45;0c&#45;&gt;nid&#45;1b&#45;in</title>
<path fill="none" stroke="#333333" d="M2164.81,-1028C2218.17,-1028 2303.33,-1028 2372.09,-1028"/>
<polygon fill="#333333" stroke="#333333" points="2372.11,-1031.5 2382.11,-1028 2372.11,-1024.5 2372.11,-1031.5"/>
</g>
<!-- nid&#45;21&#45;in -->
<g id="node38" class="node">
<title>nid&#45;21&#45;in</title>
<polygon fill="none" stroke="green" points="2586.73,-970 2380.73,-970 2380.73,-902 2586.73,-902 2586.73,-970"/>
<text text-anchor="middle" x="2483.73" y="-954.8" font-family="Times,serif" font-size="14.00">0x21</text>
<text text-anchor="middle" x="2483.73" y="-939.8" font-family="Times,serif" font-size="14.00">[Jack] HP Out at Ext Front</text>
<text text-anchor="middle" x="2483.73" y="-924.8" font-family="Times,serif" font-size="14.00">Stereo</text>
<text text-anchor="middle" x="2483.73" y="-909.8" font-family="Times,serif" font-size="14.00">OUT HP EAPD Detect</text>
</g>
<!-- nid&#45;0c&#45;&gt;nid&#45;21&#45;in -->
<g id="edge34" class="edge">
<title>nid&#45;0c&#45;&gt;nid&#45;21&#45;in</title>
<path fill="none" stroke="gray" stroke-dasharray="5,2" d="M2155.83,-1017.45C2207.84,-1004.49 2298.09,-982 2370.6,-963.94"/>
<polygon fill="gray" stroke="gray" points="2371.85,-967.23 2380.71,-961.42 2370.16,-960.44 2371.85,-967.23"/>
</g>
<!-- nid&#45;0c&#45;ampin&#45;2&#45;&gt;nid&#45;0c -->
<g id="edge17" class="edge">
<title>nid&#45;0c&#45;ampin&#45;2&#45;&gt;nid&#45;0c</title>
<path fill="none" stroke="#0000ff" d="M1797.18,-1073.63C1866.68,-1063.54 1990.76,-1045.53 2060.41,-1035.41"/>
<polygon fill="#0000ff" stroke="#0000ff" points="2061.05,-1037.09 2065.74,-1034.64 2060.54,-1033.63 2061.05,-1037.09"/>
</g>
<!-- nid&#45;0c&#45;ampin&#45;11&#45;&gt;nid&#45;0c -->
<g id="edge18" class="edge">
<title>nid&#45;0c&#45;ampin&#45;11&#45;&gt;nid&#45;0c</title>
<path fill="none" stroke="#c8c8c8" d="M1828.35,-1019.47C1897.97,-1021.57 1995.98,-1024.52 2056.53,-1026.34"/>
<polygon fill="#c8c8c8" stroke="#c8c8c8" points="2056.49,-1028.09 2061.54,-1026.5 2056.6,-1024.6 2056.49,-1028.09"/>
</g>
<!-- nid&#45;0d -->
<g id="node26" class="node">
<title>nid&#45;0d</title>
<polygon fill="none" stroke="black" points="2164.48,-936 2138.48,-967.05 2086.46,-967.05 2060.46,-936 2086.46,-904.95 2138.48,-904.95 2164.48,-936"/>
<text text-anchor="middle" x="2112.47" y="-939.8" font-family="Times,serif" font-size="14.00">0x0d</text>
<text text-anchor="middle" x="2112.47" y="-924.8" font-family="Times,serif" font-size="14.00">Stereo</text>
</g>
<!-- nid&#45;0f&#45;ampin&#45;13 -->
<g id="node30" class="node">
<title>nid&#45;0f&#45;ampin&#45;13</title>
<polygon fill="none" stroke="#0000ff" points="2582.31,-847 2434.43,-870 2434.43,-824 2582.31,-847"/>
<text text-anchor="middle" x="2483.73" y="-843.3" font-family="Times,serif" font-size="14.00">0 (0x0d)</text>
</g>
<!-- nid&#45;0d&#45;&gt;nid&#45;0f&#45;ampin&#45;13 -->
<g id="edge26" class="edge">
<title>nid&#45;0d&#45;&gt;nid&#45;0f&#45;ampin&#45;13</title>
<path fill="none" stroke="#333333" d="M2156.19,-925.7C2222.28,-909.77 2349.46,-879.12 2424.1,-861.13"/>
<polygon fill="#333333" stroke="#333333" points="2425.37,-864.43 2434.27,-858.68 2423.73,-857.62 2425.37,-864.43"/>
</g>
<!-- nid&#45;0d&#45;&gt;nid&#45;1b&#45;in -->
<g id="edge32" class="edge">
<title>nid&#45;0d&#45;&gt;nid&#45;1b&#45;in</title>
<path fill="none" stroke="gray" stroke-dasharray="5,2" d="M2155.83,-946.55C2208.12,-959.58 2299.03,-982.23 2371.73,-1000.35"/>
<polygon fill="gray" stroke="gray" points="2371.31,-1003.85 2381.86,-1002.87 2373.01,-997.06 2371.31,-1003.85"/>
</g>
<!-- nid&#45;0d&#45;&gt;nid&#45;21&#45;in -->
<g id="edge35" class="edge">
<title>nid&#45;0d&#45;&gt;nid&#45;21&#45;in</title>
<path fill="none" stroke="#333333" d="M2164.81,-936C2217.68,-936 2301.78,-936 2370.2,-936"/>
<polygon fill="#333333" stroke="#333333" points="2370.61,-939.5 2380.61,-936 2370.61,-932.5 2370.61,-939.5"/>
</g>
<!-- nid&#45;0d&#45;ampin&#45;3&#45;&gt;nid&#45;0d -->
<g id="edge21" class="edge">
<title>nid&#45;0d&#45;ampin&#45;3&#45;&gt;nid&#45;0d</title>
<path fill="none" stroke="#0000ff" d="M1828.35,-944.53C1897.97,-942.43 1995.98,-939.48 2056.53,-937.66"/>
<polygon fill="#0000ff" stroke="#0000ff" points="2056.6,-939.4 2061.54,-937.5 2056.49,-935.91 2056.6,-939.4"/>
</g>
<!-- nid&#45;0d&#45;ampin&#45;11&#45;&gt;nid&#45;0d -->
<g id="edge22" class="edge">
<title>nid&#45;0d&#45;ampin&#45;11&#45;&gt;nid&#45;0d</title>
<path fill="none" stroke="#c8c8c8" d="M1797.18,-890.37C1866.68,-900.46 1990.76,-918.47 2060.41,-928.59"/>
<polygon fill="#c8c8c8" stroke="#c8c8c8" points="2060.54,-930.37 2065.74,-929.36 2061.05,-926.91 2060.54,-930.37"/>
</g>
<!-- nid&#45;0f -->
<g id="node29" class="node">
<title>nid&#45;0f</title>
<polygon fill="none" stroke="black" points="2894.4,-847 2871.42,-878.05 2825.47,-878.05 2802.5,-847 2825.47,-815.95 2871.42,-815.95 2894.4,-847"/>
<text text-anchor="middle" x="2848.45" y="-850.8" font-family="Times,serif" font-size="14.00">0x0f</text>
<text text-anchor="middle" x="2848.45" y="-835.8" font-family="Times,serif" font-size="14.00">Mono</text>
</g>
<!-- nid&#45;17&#45;in -->
<g id="node33" class="node">
<title>nid&#45;17&#45;in</title>
<polygon fill="none" stroke="green" points="3308.17,-881 3110.17,-881 3110.17,-813 3308.17,-813 3308.17,-881"/>
<text text-anchor="middle" x="3209.17" y="-865.8" font-family="Times,serif" font-size="14.00">0x17</text>
<text text-anchor="middle" x="3209.17" y="-850.8" font-family="Times,serif" font-size="14.00">[N/A] Line Out at Ext N/A</text>
<text text-anchor="middle" x="3209.17" y="-835.8" font-family="Times,serif" font-size="14.00">Mono</text>
<text text-anchor="middle" x="3209.17" y="-820.8" font-family="Times,serif" font-size="14.00">OUT</text>
</g>
<!-- nid&#45;0f&#45;&gt;nid&#45;17&#45;in -->
<g id="edge28" class="edge">
<title>nid&#45;0f&#45;&gt;nid&#45;17&#45;in</title>
<path fill="none" stroke="#333333" d="M2894.52,-847C2945.72,-847 3031.1,-847 3099.86,-847"/>
<polygon fill="#333333" stroke="#333333" points="3099.88,-850.5 3109.88,-847 3099.88,-843.5 3099.88,-850.5"/>
</g>
<!-- nid&#45;0f&#45;ampin&#45;13&#45;&gt;nid&#45;0f -->
<g id="edge25" class="edge">
<title>nid&#45;0f&#45;ampin&#45;13&#45;&gt;nid&#45;0f</title>
<path fill="none" stroke="#0000ff" d="M2582.41,-847C2651.72,-847 2741.93,-847 2797.21,-847"/>
<polygon fill="#0000ff" stroke="#0000ff" points="2797.45,-848.75 2802.45,-847 2797.45,-845.25 2797.45,-848.75"/>
</g>
<!-- nid&#45;12&#45;out -->
<g id="node31" class="node">
<title>nid&#45;12&#45;out</title>
<polygon fill="none" stroke="green" points="1430.63,-263 1258.63,-263 1258.63,-195 1430.63,-195 1430.63,-263"/>
<text text-anchor="middle" x="1344.63" y="-247.8" font-family="Times,serif" font-size="14.00">0x12</text>
<text text-anchor="middle" x="1344.63" y="-232.8" font-family="Times,serif" font-size="14.00">[Fixed] Mic at Int N/A</text>
<text text-anchor="middle" x="1344.63" y="-217.8" font-family="Times,serif" font-size="14.00">Stereo</text>
<text text-anchor="middle" x="1344.63" y="-202.8" font-family="Times,serif" font-size="14.00">IN</text>
</g>
<!-- nid&#45;23&#45;ampin&#45;18 -->
<g id="node51" class="node">
<title>nid&#45;23&#45;ampin&#45;18</title>
<polygon fill="none" stroke="#0000ff" points="1844.01,-231 1696.13,-254 1696.13,-208 1844.01,-231"/>
<text text-anchor="middle" x="1745.42" y="-227.3" font-family="Times,serif" font-size="14.00">6 (0x12)</text>
</g>
<!-- nid&#45;12&#45;out&#45;&gt;nid&#45;23&#45;ampin&#45;18 -->
<g id="edge61" class="edge">
<title>nid&#45;12&#45;out&#45;&gt;nid&#45;23&#45;ampin&#45;18</title>
<path fill="none" stroke="#333333" d="M1430.69,-229.43C1507.61,-229.81 1618.8,-230.37 1686.08,-230.71"/>
<polygon fill="#333333" stroke="#333333" points="1686.07,-234.21 1696.09,-230.76 1686.11,-227.21 1686.07,-234.21"/>
</g>
<!-- nid&#45;1b&#45;ampout -->
<g id="node35" class="node">
<title>nid&#45;1b&#45;ampout</title>
<polygon fill="none" stroke="#c8c8c8" points="2875.45,-1028 2834.95,-1046 2834.95,-1010 2875.45,-1028"/>
</g>
<!-- nid&#45;1b&#45;in&#45;&gt;nid&#45;1b&#45;ampout -->
<g id="edge29" class="edge">
<title>nid&#45;1b&#45;in&#45;&gt;nid&#45;1b&#45;ampout</title>
<path fill="none" stroke="#c8c8c8" d="M2585.28,-1028C2670.53,-1028 2785.72,-1028 2829.53,-1028"/>
<polygon fill="#c8c8c8" stroke="#c8c8c8" points="2829.76,-1029.75 2834.76,-1028 2829.76,-1026.25 2829.76,-1029.75"/>
</g>
<!-- nid&#45;1b&#45;ampin -->
<g id="node36" class="node">
<title>nid&#45;1b&#45;ampin</title>
<polygon fill="none" stroke="#0000ff" points="125.02,-421 84.52,-439 84.52,-403 125.02,-421"/>
</g>
<!-- nid&#45;1b&#45;ampin&#45;&gt;nid&#45;1b&#45;out -->
<g id="edge30" class="edge">
<title>nid&#45;1b&#45;ampin&#45;&gt;nid&#45;1b&#45;out</title>
<path fill="none" stroke="#0000ff" d="M125.14,-421C180.39,-421 311.73,-421 405.95,-421"/>
<polygon fill="#0000ff" stroke="#0000ff" points="405.97,-422.75 410.97,-421 405.97,-419.25 405.97,-422.75"/>
</g>
<!-- nid&#45;22&#45;ampin&#45;24&#45;&gt;nid&#45;22 -->
<g id="edge36" class="edge">
<title>nid&#45;22&#45;ampin&#45;24&#45;&gt;nid&#45;22</title>
<path fill="none" stroke="#c8c8c8" d="M1782.76,-566.56C1849.24,-584.04 1990.4,-621.16 2064.23,-640.58"/>
<polygon fill="#c8c8c8" stroke="#c8c8c8" points="2064.15,-642.37 2069.43,-641.94 2065.04,-638.98 2064.15,-642.37"/>
</g>
<!-- nid&#45;22&#45;ampin&#45;25&#45;&gt;nid&#45;22 -->
<g id="edge37" class="edge">
<title>nid&#45;22&#45;ampin&#45;25&#45;&gt;nid&#45;22</title>
<path fill="none" stroke="#c8c8c8" d="M1780.76,-802.97C1799.69,-797.14 1823.49,-789.31 1844.21,-781 1926.72,-747.91 2019.6,-701.18 2071.26,-674.29"/>
<polygon fill="#c8c8c8" stroke="#c8c8c8" points="2072.2,-675.78 2075.83,-671.91 2070.58,-672.67 2072.2,-675.78"/>
</g>
<!-- nid&#45;22&#45;ampin&#45;26&#45;&gt;nid&#45;22 -->
<g id="edge38" class="edge">
<title>nid&#45;22&#45;ampin&#45;26&#45;&gt;nid&#45;22</title>
<path fill="none" stroke="#c8c8c8" d="M1782.76,-739.44C1849.24,-721.96 1990.4,-684.84 2064.23,-665.42"/>
<polygon fill="#c8c8c8" stroke="#c8c8c8" points="2065.04,-667.02 2069.43,-664.06 2064.15,-663.63 2065.04,-667.02"/>
</g>
<!-- nid&#45;22&#45;ampin&#45;27&#45;&gt;nid&#45;22 -->
<g id="edge39" class="edge">
<title>nid&#45;22&#45;ampin&#45;27&#45;&gt;nid&#45;22</title>
<path fill="none" stroke="#c8c8c8" d="M1809.18,-626.5C1879.61,-632.67 1992.64,-642.58 2058.7,-648.37"/>
<polygon fill="#c8c8c8" stroke="#c8c8c8" points="2058.63,-650.13 2063.77,-648.82 2058.94,-646.64 2058.63,-650.13"/>
</g>
<!-- nid&#45;22&#45;ampin&#45;29&#45;&gt;nid&#45;22 -->
<g id="edge40" class="edge">
<title>nid&#45;22&#45;ampin&#45;29&#45;&gt;nid&#45;22</title>
<path fill="none" stroke="#c8c8c8" d="M1780.76,-503.03C1799.69,-508.86 1823.49,-516.69 1844.21,-525 1926.72,-558.09 2019.6,-604.82 2071.26,-631.71"/>
<polygon fill="#c8c8c8" stroke="#c8c8c8" points="2070.58,-633.33 2075.83,-634.09 2072.2,-630.22 2070.58,-633.33"/>
</g>
<!-- nid&#45;22&#45;ampin&#45;11&#45;&gt;nid&#45;22 -->
<g id="edge41" class="edge">
<title>nid&#45;22&#45;ampin&#45;11&#45;&gt;nid&#45;22</title>
<path fill="none" stroke="#c8c8c8" d="M1809.18,-679.5C1879.61,-673.33 1992.64,-663.42 2058.7,-657.63"/>
<polygon fill="#c8c8c8" stroke="#c8c8c8" points="2058.94,-659.36 2063.77,-657.18 2058.63,-655.87 2058.94,-659.36"/>
</g>
<!-- nid&#45;23&#45;ampin&#45;24&#45;&gt;nid&#45;23 -->
<g id="edge48" class="edge">
<title>nid&#45;23&#45;ampin&#45;24&#45;&gt;nid&#45;23</title>
<path fill="none" stroke="#c8c8c8" d="M1778.65,-113.29C1797.76,-119.45 1822.42,-127.52 1844.21,-135 1923.04,-162.05 2014.3,-195.24 2067.2,-214.66"/>
<polygon fill="#c8c8c8" stroke="#c8c8c8" points="2066.9,-216.41 2072.2,-216.5 2068.11,-213.13 2066.9,-216.41"/>
</g>
<!-- nid&#45;23&#45;ampin&#45;25&#45;&gt;nid&#45;23 -->
<g id="edge49" class="edge">
<title>nid&#45;23&#45;ampin&#45;25&#45;&gt;nid&#45;23</title>
<path fill="none" stroke="#c8c8c8" d="M1782.45,-413.31C1801.25,-407.73 1824.38,-400.04 1844.21,-391 1930.66,-351.58 2024.33,-290.9 2074.6,-256.72"/>
<polygon fill="#c8c8c8" stroke="#c8c8c8" points="2075.88,-257.96 2079.03,-253.69 2073.91,-255.07 2075.88,-257.96"/>
</g>
<!-- nid&#45;23&#45;ampin&#45;26&#45;&gt;nid&#45;23 -->
<g id="edge50" class="edge">
<title>nid&#45;23&#45;ampin&#45;26&#45;&gt;nid&#45;23</title>
<path fill="none" stroke="#c8c8c8" d="M1778.65,-348.71C1797.76,-342.55 1822.42,-334.48 1844.21,-327 1923.04,-299.95 2014.3,-266.76 2067.2,-247.34"/>
<polygon fill="#c8c8c8" stroke="#c8c8c8" points="2068.11,-248.87 2072.2,-245.5 2066.9,-245.59 2068.11,-248.87"/>
</g>
<!-- nid&#45;23&#45;ampin&#45;27&#45;&gt;nid&#45;23 -->
<g id="edge51" class="edge">
<title>nid&#45;23&#45;ampin&#45;27&#45;&gt;nid&#45;23</title>
<path fill="none" stroke="#c8c8c8" d="M1792.66,-175.11C1861.6,-187.19 1990.83,-209.85 2061.75,-222.28"/>
<polygon fill="#c8c8c8" stroke="#c8c8c8" points="2061.53,-224.02 2066.75,-223.16 2062.13,-220.57 2061.53,-224.02"/>
</g>
<!-- nid&#45;23&#45;ampin&#45;29&#45;&gt;nid&#45;23 -->
<g id="edge52" class="edge">
<title>nid&#45;23&#45;ampin&#45;29&#45;&gt;nid&#45;23</title>
<path fill="none" stroke="#c8c8c8" d="M1782.45,-48.69C1801.25,-54.27 1824.38,-61.96 1844.21,-71 1930.66,-110.42 2024.33,-171.1 2074.6,-205.28"/>
<polygon fill="#c8c8c8" stroke="#c8c8c8" points="2073.91,-206.93 2079.03,-208.31 2075.88,-204.04 2073.91,-206.93"/>
</g>
<!-- nid&#45;23&#45;ampin&#45;11&#45;&gt;nid&#45;23 -->
<g id="edge53" class="edge">
<title>nid&#45;23&#45;ampin&#45;11&#45;&gt;nid&#45;23</title>
<path fill="none" stroke="#c8c8c8" d="M1792.66,-286.89C1861.6,-274.81 1990.83,-252.15 2061.75,-239.72"/>
<polygon fill="#c8c8c8" stroke="#c8c8c8" points="2062.13,-241.43 2066.75,-238.84 2061.53,-237.98 2062.13,-241.43"/>
</g>
<!-- nid&#45;23&#45;ampin&#45;18&#45;&gt;nid&#45;23 -->
<g id="edge54" class="edge">
<title>nid&#45;23&#45;ampin&#45;18&#45;&gt;nid&#45;23</title>
<path fill="none" stroke="#0000ff" d="M1844.25,-231C1911.66,-231 1998.88,-231 2055.01,-231"/>
<polygon fill="#0000ff" stroke="#0000ff" points="2055.34,-232.75 2060.34,-231 2055.34,-229.25 2055.34,-232.75"/>
</g>
</g>
</svg>
